<svg width="8" height="22" viewBox="0 0 8 22" fill="none" xmlns="http://www.w3.org/2000/svg">
<path d="M3.51562 7.5715C5.45898 7.5715 7.03125 8.94084 7.03125 10.6334C7.03125 12.3259 5.45898 13.6953 3.51562 13.6953C1.57227 13.6953 0 12.3259 0 10.6334C0 8.94084 1.57227 7.5715 3.51562 7.5715ZM0 3.14879C0 4.84133 1.57227 6.21067 3.51562 6.21067C5.45898 6.21067 7.03125 4.84133 7.03125 3.14879C7.03125 1.45625 5.45898 0.0869141 3.51562 0.0869141C1.57227 0.0869141 0 1.45625 0 3.14879ZM0 18.118C0 19.8105 1.57227 21.1798 3.51562 21.1798C5.45898 21.1798 7.03125 19.8105 7.03125 18.118C7.03125 16.4254 5.45898 15.0561 3.51562 15.0561C1.57227 15.0561 0 16.4254 0 18.118Z" fill="#0E382F"/>
</svg>
